<?xml version="1.0" encoding="utf-8"?>
<!-- Generator: Adobe Illustrator 19.2.1, SVG Export Plug-In . SVG Version: 6.00 Build 0)  -->
<svg version="1.1" id="Layer_1" xmlns="http://www.w3.org/2000/svg" xmlns:xlink="http://www.w3.org/1999/xlink" x="0px" y="0px"
	 viewBox="0 0 112 206" style="enable-background:new 0 0 112 206;" xml:space="preserve">
<style type="text/css">
	.st0{fill:#FFFFFF;}
</style>
<g>
	<path class="st0" d="M99.7,0H12.3C5.5,0,0,5.4,0,12v182c0,6.6,5.5,12,12.3,12h87.4c6.8,0,12.3-5.4,12.3-12V12
		C112,5.4,106.5,0,99.7,0z M47.6,18.7h17.9c1.1,0,2.1,1.1,2.1,2.5s-0.9,2.5-2.1,2.5H47.6c-1.1,0-2.1-1.1-2.1-2.5
		S46.4,18.7,47.6,18.7z M55.7,197.4c-4.8,0-8.8-3.9-8.8-8.8c0-4.8,3.9-8.8,8.8-8.8c4.8,0,8.8,3.9,8.8,8.8
		C64.4,193.5,60.5,197.4,55.7,197.4z M102.1,174.2H11.2v-140h90.9C102.1,34.2,102.1,174.2,102.1,174.2z"/>
</g>
</svg>
