<?xml version="1.0" encoding="utf-8"?>
<!-- Generator: Adobe Illustrator 21.0.2, SVG Export Plug-In . SVG Version: 6.00 Build 0)  -->
<svg version="1.1" id="Layer_1" xmlns="http://www.w3.org/2000/svg" xmlns:xlink="http://www.w3.org/1999/xlink" x="0px" y="0px"
	 viewBox="0 0 27 27" style="enable-background:new 0 0 27 27;" xml:space="preserve">
<style type="text/css">
	.st0{fill:#FFFFFF;}
	.st1{fill:#1A76B6;}
</style>
<path class="st0" d="M7.6,4.7c-2.7,1.7-3.7,5.7-2,8.5C4.9,8.7,8.9,6.9,8.9,6.9S8,5.4,7.6,4.7z"/>
<path class="st1" d="M26.6,23.2l-8.3-8.3c0.9-1.4,1.4-3.1,1.4-4.9c0-5.3-4.3-9.6-9.6-9.6S0.4,4.7,0.4,10s4.3,9.6,9.6,9.6
	c2,0,3.8-0.6,5.3-1.6l8.2,8.2L26.6,23.2z M2.5,10c0-4.1,3.4-7.5,7.5-7.5s7.5,3.4,7.5,7.5s-3.4,7.5-7.5,7.5S2.5,14.2,2.5,10z"/>
</svg>
