<?xml version="1.0" encoding="utf-8"?>
<!-- Generator: Adobe Illustrator 15.0.2, SVG Export Plug-In . SVG Version: 6.00 Build 0)  -->
<!DOCTYPE svg PUBLIC "-//W3C//DTD SVG 1.1//EN" "http://www.w3.org/Graphics/SVG/1.1/DTD/svg11.dtd" [
	<!ENTITY ns_extend "http://ns.adobe.com/Extensibility/1.0/">
	<!ENTITY ns_ai "http://ns.adobe.com/AdobeIllustrator/10.0/">
	<!ENTITY ns_graphs "http://ns.adobe.com/Graphs/1.0/">
	<!ENTITY ns_vars "http://ns.adobe.com/Variables/1.0/">
	<!ENTITY ns_imrep "http://ns.adobe.com/ImageReplacement/1.0/">
	<!ENTITY ns_sfw "http://ns.adobe.com/SaveForWeb/1.0/">
	<!ENTITY ns_custom "http://ns.adobe.com/GenericCustomNamespace/1.0/">
	<!ENTITY ns_adobe_xpath "http://ns.adobe.com/XPath/1.0/">
]>
<svg version="1.1" id="Layer_1" xmlns:x="&ns_extend;" xmlns:i="&ns_ai;" xmlns:graph="&ns_graphs;"
	 xmlns="http://www.w3.org/2000/svg" xmlns:xlink="http://www.w3.org/1999/xlink" x="0px" y="0px" width="32.055px"
	 height="32.048px" viewBox="0 0 32.055 32.048" enable-background="new 0 0 32.055 32.048" xml:space="preserve">
<metadata>
	<sfw  xmlns="&ns_sfw;">
		<slices></slices>
		<sliceSourceBounds  x="109.012" y="-141.048" width="32.055" height="32.048" bottomLeftOrigin="true"></sliceSourceBounds>
	</sfw>
</metadata>
<g id="Yelp">
	<path fill="#1A1A25" d="M29.988,23.965c1-2.348,2.066-5.059,2.066-7.965c0-8.836-7.206-16-16.043-16S0,7.164,0,16
		c0,2.897,0.988,5.603,1.988,7.946v0.023c0,0.069,0.068,0.138,0.117,0.205c0.006,0.012,0.007,0.022,0.014,0.034
		c0.009,0.018,0.018,0.035,0.018,0.054c1.381,2.281,3.384,4.282,5.687,5.632c0.057,0.002,0.155,0.059,0.232,0.085
		c2.336,1.334,5.028,2.068,7.913,2.068c2.938,0,5.681-0.735,8.047-2.116c0.036-0.017,0.075-0.036,0.1-0.037
		c2.303-1.35,4.307-3.351,5.688-5.632c0.026-0.043,0.058-0.088,0.083-0.131c0.045-0.054,0.103-0.107,0.103-0.162V23.965z"/>
	<g>
		<path opacity="0.5" fill-rule="evenodd" clip-rule="evenodd" d="M10.429,6.295c-0.328-0.598,0.123-1.197,1.012-1.568
			c1.564-0.568,2.871-0.924,4.436-1.189c1.074-0.043,1.385,0.422,1.389,0.99c0.295,3.279,0.475,6.729,0.656,10.008
			c0.041,1.295-1.256,1.674-1.984,0.572C14.062,12.15,12.188,9.281,10.429,6.295L10.429,6.295z M9.565,15.369
			c-0.438-0.098-1.049,0.27-1.139,0.988c-0.281,1.207-0.34,3.379-0.074,4.387c0.166,0.686,0.764,0.891,1.229,0.729l5.285-1.637
			c1.201-0.35,1.199-1.975-0.027-2.342L9.565,15.369L9.565,15.369z M17.831,28.451c-0.076,0.439-0.629,0.813-1.328,0.615
			c-1.221-0.209-3.246-0.992-4.072-1.631c-0.566-0.418-0.547-0.994-0.219-1.361l3.604-4.281c0.869-1.029,2.154-0.564,2.02,0.941
			L17.831,28.451L17.831,28.451z M23.181,26.947c0.293,0.338,1.045,0.367,1.541-0.162c0.969-0.807,2.098-2.355,2.506-3.41
			c0.27-0.652,0.012-1.221-0.457-1.363l-5.297-1.811c-1.174-0.428-2.02,0.826-1.246,1.848L23.181,26.947L23.181,26.947z
			 M23.423,11.285c0.322-0.311,0.986-0.285,1.436,0.287c0.865,0.885,2.039,2.713,2.332,3.715c0.213,0.672-0.145,1.125-0.625,1.227
			l-5.404,1.369c-1.207,0.322-1.967-1.027-1.107-1.979L23.423,11.285L23.423,11.285z"/>
		<path fill-rule="evenodd" clip-rule="evenodd" fill="#FFFFFF" d="M9.772,5.639C9.444,5.043,9.896,4.443,10.784,4.07
			c1.564-0.568,2.871-0.924,4.436-1.188c1.074-0.045,1.385,0.42,1.389,0.988c0.295,3.279,0.475,6.729,0.656,10.01
			c0.041,1.293-1.256,1.672-1.984,0.57C13.407,11.494,11.532,8.625,9.772,5.639L9.772,5.639z M8.909,14.713
			c-0.438-0.098-1.049,0.27-1.139,0.988c-0.281,1.207-0.34,3.379-0.074,4.389c0.166,0.684,0.764,0.889,1.229,0.727l5.287-1.637
			c1.199-0.35,1.199-1.973-0.029-2.342L8.909,14.713L8.909,14.713z M17.177,27.795c-0.078,0.439-0.631,0.813-1.33,0.615
			c-1.221-0.209-3.244-0.992-4.072-1.631c-0.566-0.418-0.547-0.994-0.219-1.359l3.604-4.283c0.869-1.029,2.154-0.563,2.02,0.941
			L17.177,27.795L17.177,27.795z M22.524,26.291c0.295,0.338,1.045,0.369,1.541-0.162c0.969-0.807,2.098-2.355,2.508-3.41
			c0.268-0.652,0.01-1.221-0.459-1.363l-5.297-1.811c-1.174-0.428-2.02,0.826-1.246,1.848L22.524,26.291L22.524,26.291z
			 M22.767,10.629c0.322-0.311,0.986-0.285,1.436,0.287c0.865,0.887,2.039,2.713,2.332,3.715c0.213,0.672-0.145,1.125-0.625,1.227
			l-5.404,1.369c-1.207,0.322-1.967-1.027-1.107-1.979L22.767,10.629L22.767,10.629z"/>
	</g>
</g>
</svg>
